<svg version="1.1" xmlns="http://www.w3.org/2000/svg" viewBox="0 0 1753.4390431156316 961.1081206051213" width="3506.8780862312633" height="1922.2162412102425" filter="invert(93%) hue-rotate(180deg)">
  <!-- svg-source:excalidraw -->
  
  <defs>
    <style class="style-fonts">
      @font-face {
        font-family: "Virgil";
        src: url("https://excalidraw.com/Virgil.woff2");
      }
      @font-face {
        font-family: "Cascadia";
        src: url("https://excalidraw.com/Cascadia.woff2");
      }
      @font-face {
        font-family: "Assistant";
        src: url("https://excalidraw.com/Assistant-Regular.woff2");
      }
    </style>
    
  </defs>
  <rect x="0" y="0" width="1753.4390431156316" height="961.1081206051213" fill="#ffffff"></rect><g stroke-linecap="round" transform="translate(165.20611226466042 74.54502626023077) rotate(0 133.87567395438919 80.68543778681214)"><path d="M32 0 C86.36 -1.52, 139.87 0.32, 235.75 0 M32 0 C102.92 0.74, 173.83 0.76, 235.75 0 M235.75 0 C255.21 -1.6, 266.57 9.38, 267.75 32 M235.75 0 C259.31 1.91, 269.11 9.12, 267.75 32 M267.75 32 C268.13 64.61, 269.24 91.55, 267.75 129.37 M267.75 32 C267.97 55.46, 268 76.85, 267.75 129.37 M267.75 129.37 C269.52 151.53, 257.97 163.28, 235.75 161.37 M267.75 129.37 C268.17 149.13, 257.18 163.17, 235.75 161.37 M235.75 161.37 C170.11 162.54, 107.86 161.18, 32 161.37 M235.75 161.37 C170.51 160.54, 103.57 161.01, 32 161.37 M32 161.37 C12.14 162.9, -0.11 151.93, 0 129.37 M32 161.37 C9.71 160.77, -0.59 152.82, 0 129.37 M0 129.37 C2.29 102.05, 0.35 74.53, 0 32 M0 129.37 C0.4 96.12, 0.35 65, 0 32 M0 32 C-1.73 10.3, 12.56 1.61, 32 0 M0 32 C0.92 12.42, 12.52 -0.18, 32 0" stroke="#1971c2" stroke-width="2" fill="none"></path></g><g transform="translate(174.98982149736992 110.23046404704291) rotate(0 124.09196472167969 45)"><text x="124.09196472167969" y="0" font-family="Virgil, Segoe UI Emoji" font-size="36px" fill="#1971c2" text-anchor="middle" style="white-space: pre;" direction="ltr" dominant-baseline="text-before-edge">TokenFactory.</text><text x="124.09196472167969" y="45" font-family="Virgil, Segoe UI Emoji" font-size="36px" fill="#1971c2" text-anchor="middle" style="white-space: pre;" direction="ltr" dominant-baseline="text-before-edge">sol</text></g><g mask="url(#mask-hGj7M71xlsC_aSPuOTYCx)" stroke-linecap="round"><g transform="translate(433.95746017343885 153.31364675247733) rotate(0 95.97092977363292 -6.767078575829601)"><path d="M0.38 -0.16 C32.25 -2.44, 160.27 -12.39, 192.23 -14.7 M-0.87 -1.29 C30.77 -3.37, 159.38 -11.82, 191.44 -13.78" stroke="#2f9e44" stroke-width="2" fill="none"></path></g><g transform="translate(433.95746017343885 153.31364675247733) rotate(0 95.97092977363292 -6.767078575829601)"><path d="M163.95 -1.75 C174.43 -6.01, 183.4 -10.84, 191.44 -13.78 M163.95 -1.75 C171.21 -4.41, 178.11 -7.27, 191.44 -13.78" stroke="#2f9e44" stroke-width="2" fill="none"></path></g><g transform="translate(433.95746017343885 153.31364675247733) rotate(0 95.97092977363292 -6.767078575829601)"><path d="M162.65 -22.23 C173.45 -18.56, 182.92 -15.46, 191.44 -13.78 M162.65 -22.23 C170.1 -19.63, 177.33 -17.24, 191.44 -13.78" stroke="#2f9e44" stroke-width="2" fill="none"></path></g></g><mask id="mask-hGj7M71xlsC_aSPuOTYCx"><rect x="0" y="0" fill="#fff" width="725.8993197207046" height="266.8478039041365"></rect><rect x="477.8184198542983" y="124.04656817664727" fill="#000" width="104.21994018554688" height="45" opacity="1"></rect></mask><g transform="translate(477.81841985429827 124.04656817664727) rotate(0 51.817930167517616 21.835854633897725)"><text x="52.10997009277344" y="0" font-family="Virgil, Segoe UI Emoji" font-size="36px" fill="#2f9e44" text-anchor="middle" style="white-space: pre;" direction="ltr" dominant-baseline="text-before-edge">deploy</text></g><g stroke-linecap="round" transform="translate(635.8047756975093 10.821657273473647) rotate(0 147.34231866482878 139.5711883408071)"><path d="M129.01 0.12 C143.16 -3.95, 160.11 -0.7, 174.96 2.05 C189.82 4.81, 204.75 9.74, 218.12 16.66 C231.49 23.58, 244.69 32.91, 255.2 43.57 C265.7 54.24, 274.84 67.63, 281.16 80.63 C287.49 93.63, 291.31 107.38, 293.16 121.59 C295.02 135.8, 294.94 151.74, 292.32 165.9 C289.69 180.06, 284.72 193.89, 277.41 206.56 C270.09 219.24, 259.66 232.1, 248.43 241.96 C237.2 251.82, 223.64 259.63, 210.01 265.7 C196.39 271.77, 181.67 276.46, 166.69 278.39 C151.71 280.32, 135.2 280.05, 120.12 277.3 C105.04 274.55, 89.52 268.9, 76.21 261.91 C62.9 254.92, 50.61 245.72, 40.24 235.35 C29.88 224.98, 20.55 212.74, 14.02 199.7 C7.5 186.67, 3.09 171.58, 1.08 157.15 C-0.92 142.71, -0.78 127.09, 2.02 113.09 C4.82 99.1, 10.59 85.64, 17.9 73.19 C25.2 60.73, 34.71 48.25, 45.86 38.35 C57.01 28.45, 67.59 20.35, 84.82 13.81 C102.05 7.27, 135.26 0.65, 149.24 -0.88 C163.23 -2.42, 168.77 2.18, 168.72 4.59 M104.99 6.77 C117.86 0.58, 134.79 -0.6, 149.91 -0.65 C165.03 -0.71, 181.23 1.5, 195.73 6.44 C210.22 11.38, 224.82 20.29, 236.87 28.98 C248.93 37.66, 259.73 47.05, 268.06 58.57 C276.39 70.09, 282.18 83.97, 286.87 98.08 C291.55 112.19, 296.39 128.69, 296.16 143.24 C295.93 157.79, 290.46 172.06, 285.47 185.39 C280.48 198.72, 275.17 211.86, 266.22 223.22 C257.26 234.58, 244.57 245.08, 231.76 253.54 C218.95 262, 203.98 269.63, 189.36 273.99 C174.73 278.34, 158.87 280.05, 144.02 279.65 C129.18 279.26, 114.64 276.5, 100.27 271.62 C85.9 266.74, 70.3 259.3, 57.81 250.37 C45.32 241.44, 33.76 229.67, 25.31 218.03 C16.87 206.39, 11.5 193.92, 7.16 180.53 C2.82 167.14, -1.06 152.08, -0.74 137.67 C-0.42 123.25, 3.85 107.81, 9.08 94.03 C14.32 80.25, 21.86 66.4, 30.67 54.98 C39.48 43.57, 49.72 33.64, 61.94 25.54 C74.17 17.44, 97.03 9.38, 104.02 6.38 C111.02 3.39, 103.03 5.46, 103.91 7.57" stroke="#1971c2" stroke-width="2" fill="none"></path></g><g transform="translate(686.4263679848407 127.70111188023111) rotate(0 96.53397369384766 22.5)"><text x="96.53397369384766" y="0" font-family="Virgil, Segoe UI Emoji" font-size="36px" fill="#1971c2" text-anchor="middle" style="white-space: pre;" direction="ltr" dominant-baseline="text-before-edge">L1Token.sol</text></g><g stroke-linecap="round" transform="translate(276.2602292753562 345.0871124217001) rotate(0 198.89166128666395 143.51671145155342)"><path d="M32 0 C110.8 0.52, 191.54 0.78, 365.78 0 M32 0 C134.12 -1.98, 237.71 -1.77, 365.78 0 M365.78 0 C385.87 -1.45, 396.49 10.06, 397.78 32 M365.78 0 C389.38 -1.38, 398.74 9.99, 397.78 32 M397.78 32 C399.22 120.31, 397.6 208.76, 397.78 255.03 M397.78 32 C397.8 85.62, 398 139.16, 397.78 255.03 M397.78 255.03 C399.76 278.14, 387.18 285.34, 365.78 287.03 M397.78 255.03 C397.15 278.47, 388.31 284.74, 365.78 287.03 M365.78 287.03 C270.26 286.46, 172.57 286.03, 32 287.03 M365.78 287.03 C290.51 284.69, 215.61 284.64, 32 287.03 M32 287.03 C9.21 286.48, 1.61 276.25, 0 255.03 M32 287.03 C8.74 286.92, -2.17 274.46, 0 255.03 M0 255.03 C0.58 187.82, 1.02 119.19, 0 32 M0 255.03 C2 184.68, 1.5 116.28, 0 32 M0 32 C1.9 9.22, 10.76 1.99, 32 0 M0 32 C1.46 11.99, 9.82 -2.06, 32 0" stroke="#1971c2" stroke-width="2" fill="none"></path></g><g transform="translate(338.3377100382117 411.64056638341845) rotate(0 141.5519561767578 22.5)"><text x="0" y="0" font-family="Virgil, Segoe UI Emoji" font-size="36px" fill="#1971c2" text-anchor="start" style="white-space: pre;" direction="ltr" dominant-baseline="text-before-edge">L1BossBridge.sol</text></g><g mask="url(#mask-3Rz3-uLwgsWSfjhqWO3D0)" stroke-linecap="round"><g transform="translate(675.6970040655358 488.4228964772601) rotate(0 266.038927954494 -187.99897781948175)"><path d="M-0.83 0.1 C87.58 -62.68, 442.13 -314.38, 531.06 -377.01 M0.94 -0.9 C89.65 -63.53, 444.67 -313.79, 533.24 -376.01" stroke="#e03131" stroke-width="2" fill="none"></path></g><g transform="translate(675.6970040655358 488.4228964772601) rotate(0 266.038927954494 -187.99897781948175)"><path d="M516.09 -351.39 C522.34 -361.6, 526.49 -367.39, 533.24 -376.01 M516.09 -351.39 C522.56 -359, 527.17 -366.75, 533.24 -376.01" stroke="#e03131" stroke-width="2" fill="none"></path></g><g transform="translate(675.6970040655358 488.4228964772601) rotate(0 266.038927954494 -187.99897781948175)"><path d="M504.28 -368.17 C514.61 -372.41, 522.91 -372.33, 533.24 -376.01 M504.28 -368.17 C514.51 -370.22, 522.98 -372.49, 533.24 -376.01" stroke="#e03131" stroke-width="2" fill="none"></path></g></g><mask id="mask-3Rz3-uLwgsWSfjhqWO3D0"><rect x="0" y="0" fill="#fff" width="1307.7748599745237" height="964.4208521162236"></rect><rect x="779.4119726694438" y="277.9239186577779" fill="#000" width="324.6479187011719" height="45" opacity="1"></rect></mask><g transform="translate(779.4119726694439 277.9239186577779) rotate(0 162.48904073541524 22.041161998361986)"><text x="162.32395935058594" y="0" font-family="Virgil, Segoe UI Emoji" font-size="36px" fill="#e03131" text-anchor="middle" style="white-space: pre;" direction="ltr" dominant-baseline="text-before-edge">depositTokenToL2</text></g><g stroke-linecap="round" transform="translate(1230.9831445970224 10) rotate(0 123.03371080595343 133.32526696445711)"><path d="M32 0 C83.5 -1.77, 138.16 0.44, 214.07 0 M32 0 C87.06 -1.11, 141.92 -1.28, 214.07 0 M214.07 0 C236.73 -1.56, 244.89 12.62, 246.07 32 M214.07 0 C235.66 -1.32, 247.9 8.41, 246.07 32 M246.07 32 C243.67 75.81, 246.49 120.44, 246.07 234.65 M246.07 32 C245.39 100.04, 244.41 167.39, 246.07 234.65 M246.07 234.65 C244.64 254.26, 233.49 268.1, 214.07 266.65 M246.07 234.65 C246.92 257.92, 235.25 268.83, 214.07 266.65 M214.07 266.65 C171.86 266.44, 131.66 267.32, 32 266.65 M214.07 266.65 C154.17 267.21, 93.06 267.81, 32 266.65 M32 266.65 C12.11 267.55, 1.79 256.95, 0 234.65 M32 266.65 C12.31 265.84, 1.29 256.74, 0 234.65 M0 234.65 C-0.12 156.9, -0.57 75.82, 0 32 M0 234.65 C-0.68 180.67, -0.62 126.97, 0 32 M0 32 C-1.21 8.73, 12.6 1.95, 32 0 M0 32 C0.93 12.27, 12.69 -1.2, 32 0" stroke="#1971c2" stroke-width="2" fill="none"></path></g><g transform="translate(1262.5048848829563 120.82526696445711) rotate(0 91.51197052001953 22.5)"><text x="91.51197052001953" y="0" font-family="Virgil, Segoe UI Emoji" font-size="36px" fill="#1971c2" text-anchor="middle" style="white-space: pre;" direction="ltr" dominant-baseline="text-before-edge">L1Vault.sol</text></g><g stroke-linecap="round"><g transform="translate(752.2980754130961 294.1886810559945) rotate(0 -59.035481844672006 98.79035002006594)"><path d="M1.15 -0.62 C-18.56 32.09, -106.81 163.77, -119.22 196.59 C-131.63 229.41, -81.07 196.07, -73.31 196.3 M0.29 1.66 C-18.98 34.46, -104.67 165, -117.12 197.6 C-129.57 230.21, -81.87 197.59, -74.42 197.3" stroke="#e03131" stroke-width="2" fill="none"></path></g><g transform="translate(752.2980754130961 294.1886810559945) rotate(0 -59.035481844672006 98.79035002006594)"><path d="M-90.99 212.83 C-88.45 207.36, -85.45 204.81, -74.42 197.3 M-90.99 212.83 C-87.09 208.03, -81.96 204.66, -74.42 197.3" stroke="#e03131" stroke-width="2" fill="none"></path></g><g transform="translate(752.2980754130961 294.1886810559945) rotate(0 -59.035481844672006 98.79035002006594)"><path d="M-97.09 198.55 C-93.19 196.14, -88.86 196.7, -74.42 197.3 M-97.09 198.55 C-91.67 197.28, -85.01 197.47, -74.42 197.3" stroke="#e03131" stroke-width="2" fill="none"></path></g></g><mask></mask><g transform="translate(1253.413742562509 303.7756713370918) rotate(0 113.48997497558594 45)"><text x="0" y="0" font-family="Virgil, Segoe UI Emoji" font-size="36px" fill="#e03131" text-anchor="start" style="white-space: pre;" direction="ltr" dominant-baseline="text-before-edge">Locks token </text><text x="0" y="45" font-family="Virgil, Segoe UI Emoji" font-size="36px" fill="#e03131" text-anchor="start" style="white-space: pre;" direction="ltr" dominant-baseline="text-before-edge">in vault</text></g><g stroke-linecap="round" transform="translate(943.4023136919609 411.905480623268) rotate(0 400.0183647118354 269.60131999092664)"><path d="M484.78 5.36 C511.76 5.13, 538.17 16.01, 563.38 24.02 C588.59 32.04, 613.2 42.56, 636.01 53.46 C658.82 64.35, 681.58 75.78, 700.24 89.4 C718.9 103.02, 734.55 118.64, 747.97 135.2 C761.38 151.76, 772.58 171.05, 780.72 188.78 C788.86 206.51, 793.84 223.45, 796.82 241.59 C799.8 259.72, 801.48 278.47, 798.6 297.57 C795.73 316.67, 788.75 337.89, 779.57 356.18 C770.39 374.47, 757.5 391.62, 743.5 407.31 C729.5 422.99, 713.92 436.7, 695.57 450.31 C677.21 463.92, 655.63 477.61, 633.35 488.96 C611.08 500.32, 587.35 511.22, 561.94 518.42 C536.52 525.62, 507.99 528.41, 480.85 532.16 C453.71 535.92, 426.89 541.02, 399.09 540.93 C371.3 540.85, 341.5 536.09, 314.1 531.63 C286.69 527.18, 259.69 521.4, 234.68 514.22 C209.67 507.04, 186.04 499.72, 164.04 488.56 C142.05 477.4, 121.46 461.61, 102.71 447.28 C83.96 432.95, 65.54 418.28, 51.54 402.57 C37.53 386.85, 26.83 371.04, 18.7 353 C10.57 334.96, 5.26 313.46, 2.76 294.33 C0.25 275.2, 0.48 256.76, 3.68 238.22 C6.87 219.68, 13.61 200.65, 21.94 183.07 C30.28 165.5, 39.71 148.71, 53.69 132.76 C67.68 116.81, 86.91 101.16, 105.86 87.39 C124.81 73.61, 144.95 61.03, 167.37 50.11 C189.78 39.19, 215.02 29.52, 240.36 21.88 C265.7 14.24, 292.34 8.21, 319.43 4.28 C346.52 0.34, 366.02 -4.09, 402.9 -1.7 C439.78 0.69, 508.96 11.87, 540.71 18.62 C572.47 25.36, 595.83 34.85, 593.45 38.76" stroke="none" stroke-width="0" fill="#eebefa"></path><path d="M413.4 0.17 C439.67 -3.45, 468.94 4.22, 496.35 8.47 C523.77 12.73, 553.11 17.46, 577.88 25.69 C602.66 33.91, 623.72 46.28, 645.01 57.83 C666.31 69.39, 687.22 80.89, 705.64 95.02 C724.07 109.14, 742.26 125.7, 755.55 142.58 C768.85 159.47, 778.05 178.48, 785.4 196.33 C792.75 214.18, 797.97 230.92, 799.67 249.71 C801.37 268.5, 799.87 290.54, 795.62 309.06 C791.37 327.58, 783.65 343.21, 774.18 360.85 C764.72 378.48, 753.46 399.1, 738.83 414.88 C724.21 430.66, 705.89 442.52, 686.42 455.54 C666.94 468.57, 644.79 482.53, 621.97 493.03 C599.15 503.53, 574.7 511.46, 549.48 518.54 C524.26 525.61, 498.29 532.13, 470.65 535.48 C443.01 538.83, 411.79 539.66, 383.63 538.63 C355.48 537.61, 328.32 534.01, 301.74 529.32 C275.16 524.64, 248.66 518.42, 224.16 510.54 C199.65 502.66, 176.64 493.22, 154.69 482.05 C132.73 470.87, 110.46 457.58, 92.44 443.47 C74.43 429.36, 59.49 413.9, 46.61 397.37 C33.74 380.84, 23 362.22, 15.2 344.3 C7.4 326.37, 1.6 308.61, -0.19 289.81 C-1.97 271.01, 0.7 250.13, 4.5 231.51 C8.29 212.89, 13.4 195.29, 22.56 178.07 C31.73 160.86, 44.61 144.28, 59.48 128.24 C74.35 112.21, 92.02 95.42, 111.78 81.87 C131.53 68.31, 155.02 57.48, 178.01 46.92 C201 36.37, 224.31 26.02, 249.71 18.55 C275.1 11.09, 299.49 5.02, 330.39 2.13 C361.29 -0.77, 414.19 0.21, 435.1 1.19 C456.01 2.17, 456.32 3.43, 455.87 8.01" stroke="#1e1e1e" stroke-width="2.5" fill="none" stroke-dasharray="8 10"></path></g><g stroke-linecap="round" transform="translate(1056.1051107117298 498.2705763291542) rotate(0 103.01608766205447 108.95410566906912)"><path d="M32 0 C71.96 2.42, 109.81 -8.02, 174.03 0 C197.92 -3.51, 203.66 14.4, 206.03 32 C203.57 83.47, 209.99 122.76, 206.03 185.91 C202.29 212.36, 195.67 222.88, 174.03 217.91 C115.74 223.95, 61.08 215.13, 32 217.91 C14.82 217.81, 2.63 203.06, 0 185.91 C7.81 155.27, 2.04 124.17, 0 32 C-0.23 12.38, 5.82 -1.96, 32 0" stroke="none" stroke-width="0" fill="#eebefa"></path><path d="M32 0 C82.43 -0.31, 136.18 2.76, 174.03 0 M174.03 0 C198.97 3.13, 203 8.94, 206.03 32 M206.03 32 C207.44 71.17, 208.27 114.54, 206.03 185.91 M206.03 185.91 C209.26 203.89, 193.15 216.62, 174.03 217.91 M174.03 217.91 C119.91 220.35, 65.96 219.12, 32 217.91 M32 217.91 C8.1 218.86, -3.41 204.32, 0 185.91 M0 185.91 C-5.67 130.43, -6.42 79.28, 0 32 M0 32 C2.67 8.28, 10.36 3.44, 32 0" stroke="#1e1e1e" stroke-width="2.5" fill="none" stroke-dasharray="8 10"></path></g><g transform="translate(1089.0832192478076 584.7246819982238) rotate(0 70.03797912597656 22.5)"><text x="70.03797912597656" y="0" font-family="Virgil, Segoe UI Emoji" font-size="36px" fill="#1e1e1e" text-anchor="middle" style="white-space: pre;" direction="ltr" dominant-baseline="text-before-edge">L2Vault</text></g><g stroke-linecap="round"><g transform="translate(966.0379333810258 346.0184345064672) rotate(0 55.44616216782106 80.25754218212887)"><path d="M-1.31 -0.85 C17.66 26.25, 93.6 135.53, 112.23 162.34" stroke="#2f9e44" stroke-width="2.5" fill="none" stroke-dasharray="8 10"></path></g></g><mask></mask><g stroke-linecap="round" transform="translate(1415.6831040288941 482.2561659192834) rotate(0 124.76454127479883 116.55028048716622)"><path d="M54.16 23.7 C64.2 14.65, 77.63 7.42, 91.23 3.42 C104.82 -0.59, 121.7 -1.57, 135.74 -0.33 C149.78 0.92, 162.5 5.57, 175.49 10.9 C188.49 16.22, 203.54 22.15, 213.71 31.62 C223.88 41.1, 230.74 55.69, 236.51 67.74 C242.29 79.8, 246.57 90.68, 248.36 103.95 C250.14 117.23, 250.66 134.16, 247.21 147.38 C243.77 160.6, 236.25 172.72, 227.67 183.27 C219.09 193.82, 207.1 202.86, 195.71 210.68 C184.33 218.49, 172.81 226.72, 159.38 230.15 C145.95 233.58, 129.33 232.28, 115.15 231.26 C100.98 230.24, 87.31 229.55, 74.31 224 C61.31 218.45, 47.65 207.75, 37.13 197.96 C26.61 188.18, 17.09 177.03, 11.19 165.29 C5.28 153.54, 3.23 140.69, 1.7 127.5 C0.17 114.3, -1.09 99.16, 2.02 86.12 C5.13 73.07, 7.66 62.23, 20.36 49.24 C33.06 36.25, 63.1 15.67, 78.21 8.18 C93.32 0.7, 109.87 2.83, 111.02 4.33" stroke="#1971c2" stroke-width="2.5" fill="none" stroke-dasharray="8 10"></path></g><g transform="translate(1460.2338106103061 553.8929527247801) rotate(0 79.99198150634766 45)"><text x="79.99198150634766" y="0" font-family="Virgil, Segoe UI Emoji" font-size="36px" fill="#1971c2" text-anchor="middle" style="white-space: pre;" direction="ltr" dominant-baseline="text-before-edge">L2Token.</text><text x="79.99198150634766" y="45" font-family="Virgil, Segoe UI Emoji" font-size="36px" fill="#1971c2" text-anchor="middle" style="white-space: pre;" direction="ltr" dominant-baseline="text-before-edge">sol</text></g><g mask="url(#mask--KPCQbxX2qRTkhvAbH8ea)" stroke-linecap="round"><g transform="translate(1249.6881052503002 623.4703198338902) rotate(0 84.57744443544459 21.898629641568277)"><path d="M2.18 2 C30.46 9.58, 138.86 35.53, 166.97 42.93" stroke="#e03131" stroke-width="2.5" fill="none" stroke-dasharray="8 10"></path></g><g transform="translate(1249.6881052503002 623.4703198338902) rotate(0 84.57744443544459 21.898629641568277)"><path d="M140 42.92 C142.05 47.34, 153.06 44.47, 168.47 39.4" stroke="#e03131" stroke-width="2.5" fill="none"></path></g><g transform="translate(1249.6881052503002 623.4703198338902) rotate(0 84.57744443544459 21.898629641568277)"><path d="M144.98 23.01 C145.65 31.58, 155.65 32.78, 168.47 39.4" stroke="#e03131" stroke-width="2.5" fill="none"></path></g></g><mask id="mask--KPCQbxX2qRTkhvAbH8ea"><rect x="0" y="0" fill="#fff" width="1518.8429941211893" height="767.2675791170268"></rect><rect x="1283.1275644562522" y="622.8689494754581" fill="#000" width="102.27597045898438" height="45" opacity="1"></rect></mask><g transform="translate(1283.1275644562525 622.8689494754581) rotate(0 51.1373009212316 23.06775594875262)"><text x="51.13798522949219" y="0" font-family="Virgil, Segoe UI Emoji" font-size="36px" fill="#e03131" text-anchor="middle" style="white-space: pre;" direction="ltr" dominant-baseline="text-before-edge">unlock</text></g><g transform="translate(623.5521104151028 760.7412625848456) rotate(0 121.19396209716797 22.5)"><text x="0" y="0" font-family="Virgil, Segoe UI Emoji" font-size="36px" fill="#1e1e1e" text-anchor="start" style="white-space: pre;" direction="ltr" dominant-baseline="text-before-edge">Not Built Yet</text></g><g stroke-linecap="round"><g transform="translate(874.7237877545315 786.2440456456898) rotate(0 31.38455095880363 -11.406274537174795)"><path d="M1.15 0.99 C11.58 -2.73, 52.48 -19.32, 62.9 -23.24 M0.3 0.46 C10.55 -3.01, 51.5 -18.33, 62.01 -21.93" stroke="#1e1e1e" stroke-width="2" fill="none"></path></g><g transform="translate(874.7237877545315 786.2440456456898) rotate(0 31.38455095880363 -11.406274537174795)"><path d="M38.96 -2.73 C48.3 -9.02, 53.48 -14.03, 62.01 -21.93 M38.96 -2.73 C45.49 -8.01, 54.23 -14.5, 62.01 -21.93" stroke="#1e1e1e" stroke-width="2" fill="none"></path></g><g transform="translate(874.7237877545315 786.2440456456898) rotate(0 31.38455095880363 -11.406274537174795)"><path d="M32.01 -22.04 C43.48 -22.08, 50.94 -20.77, 62.01 -21.93 M32.01 -22.04 C40.96 -21.12, 51.93 -21.41, 62.01 -21.93" stroke="#1e1e1e" stroke-width="2" fill="none"></path></g></g><mask></mask><g mask="url(#mask-yI-HBr7cQs99jYhD_DCaQ)" stroke-linecap="round"><g transform="translate(1232.686657011742 264.80339725358226) rotate(0 -277.51766676554234 143.30333618328086)"><path d="M-0.91 0.32 C-51.18 29.93, -209.16 130.42, -301.69 178.18 C-394.22 225.94, -513.91 268.91, -556.1 286.86 M0.81 -0.56 C-49.07 28.63, -206.99 128.07, -299.42 176.22 C-391.84 224.36, -511.25 269.91, -553.76 288.31" stroke="#6741d9" stroke-width="2" fill="none"></path></g><g transform="translate(1232.686657011742 264.80339725358226) rotate(0 -277.51766676554234 143.30333618328086)"><path d="M-531.63 268.07 C-537.43 272.39, -543.88 277.88, -553.76 288.31 M-531.63 268.07 C-538.68 274.47, -545.87 281.5, -553.76 288.31" stroke="#6741d9" stroke-width="2" fill="none"></path></g><g transform="translate(1232.686657011742 264.80339725358226) rotate(0 -277.51766676554234 143.30333618328086)"><path d="M-523.79 287.03 C-531.95 285.79, -540.67 285.77, -553.76 288.31 M-523.79 287.03 C-533.39 287.3, -543.09 288.23, -553.76 288.31" stroke="#6741d9" stroke-width="2" fill="none"></path></g></g><mask id="mask-yI-HBr7cQs99jYhD_DCaQ"><rect x="0" y="0" fill="#fff" width="1887.7219905428267" height="651.410069620144"></rect><rect x="853.4494865784757" y="420.17701662857144" fill="#000" width="156.74395751953125" height="45" opacity="1"></rect></mask><g transform="translate(853.4494865784757 420.17701662857144) rotate(0 101.59088357892978 -11.494774221192529)"><text x="78.37197875976562" y="0" font-family="Virgil, Segoe UI Emoji" font-size="36px" fill="#6741d9" text-anchor="middle" style="white-space: pre;" direction="ltr" dominant-baseline="text-before-edge">sendToL1</text></g><g stroke-linecap="round"><g transform="translate(678.003262898919 558.0968313238318) rotate(0 -40.29832841862816 -141.20788330338019)"><path d="M-0.91 -1.17 C-14.18 -1.59, -81.08 43.36, -80.77 -3.51 C-80.46 -50.37, -12.83 -236.05, 0.94 -282.37 M0.82 0.82 C-12.43 0.62, -81.05 44.5, -81.18 -2.47 C-81.31 -49.45, -13.89 -234.2, 0.05 -281.02" stroke="#6741d9" stroke-width="2" fill="none"></path></g><g transform="translate(678.003262898919 558.0968313238318) rotate(0 -40.29832841862816 -141.20788330338019)"><path d="M0.96 -251.04 C-0.93 -255.52, -0.76 -263.82, 0.05 -281.02 M0.96 -251.04 C0.16 -260.69, -0.75 -269.51, 0.05 -281.02" stroke="#6741d9" stroke-width="2" fill="none"></path></g><g transform="translate(678.003262898919 558.0968313238318) rotate(0 -40.29832841862816 -141.20788330338019)"><path d="M-18.53 -257.46 C-16.46 -260.48, -12.27 -267.45, 0.05 -281.02 M-18.53 -257.46 C-13.37 -265.32, -8.35 -272.19, 0.05 -281.02" stroke="#6741d9" stroke-width="2" fill="none"></path></g></g><mask></mask><g stroke-linecap="round"><g transform="translate(936.5914047914005 484.94115440317) rotate(0 57.3119907173143 47.654987698696914)"><path d="M0.11 -0.18 C19.13 15.72, 95.12 80.24, 114.05 96.31" stroke="#2f9e44" stroke-width="2.5" fill="none" stroke-dasharray="8 10"></path></g></g><mask></mask><g mask="url(#mask-AyTLBj8H3Yaq_l1qQDZms)" stroke-linecap="round"><g transform="translate(1439.7764151585438 711.4890530777084) rotate(0 -92.59631983709005 -9.165427756181998)"><path d="M-0.04 0.69 C-31.03 -2.13, -154.54 -14.49, -185.25 -17.6" stroke="#6741d9" stroke-width="2.5" fill="none" stroke-dasharray="8 10"></path></g><g transform="translate(1439.7764151585438 711.4890530777084) rotate(0 -92.59631983709005 -9.165427756181998)"><path d="M-156.18 -24.99 C-165.45 -22.46, -175.76 -18.25, -185.25 -17.6" stroke="#6741d9" stroke-width="2.5" fill="none"></path></g><g transform="translate(1439.7764151585438 711.4890530777084) rotate(0 -92.59631983709005 -9.165427756181998)"><path d="M-158.23 -4.57 C-166.65 -9.33, -176.23 -12.41, -185.25 -17.6" stroke="#6741d9" stroke-width="2.5" fill="none"></path></g></g><mask id="mask-AyTLBj8H3Yaq_l1qQDZms"><rect x="0" y="0" fill="#fff" width="1724.969054832724" height="829.8199085900724"></rect><rect x="1314.6721073453796" y="679.8236253215264" fill="#000" width="65.01597595214844" height="45" opacity="1"></rect></mask><g transform="translate(1314.6721073453796 679.8236253215264) rotate(0 32.45982471331956 23.211143568903026)"><text x="32.50798797607422" y="0" font-family="Virgil, Segoe UI Emoji" font-size="36px" fill="#6741d9" text-anchor="middle" style="white-space: pre;" direction="ltr" dominant-baseline="text-before-edge">lock</text></g><g stroke-linecap="round"><g transform="translate(380.7973163965033 812.9848981870891) rotate(0 641.0963863830677 -319.7866901641919)"><path d="M0.87 -0.7 C214.51 -107.05, 1068.35 -532.6, 1282.02 -639.01" stroke="#ffc9c9" stroke-width="2.5" fill="none" stroke-dasharray="1.5 8"></path></g></g><mask></mask><g transform="translate(10 565.9306677601207) rotate(0 100.63018078581118 104.04047488443484)"><text x="0" y="0" font-family="Helvetica, Segoe UI Emoji" font-size="180.9399563207561px" fill="#e03131" text-anchor="start" style="white-space: pre;" direction="ltr" dominant-baseline="text-before-edge">L1</text></g><g transform="translate(1510.3091240596807 282.57841154226116) rotate(0 60.31169211992392 62.35905516331695)"><text x="0" y="0" font-family="Helvetica, Segoe UI Emoji" font-size="108.45053071881203px" fill="#e03131" text-anchor="start" style="white-space: pre;" direction="ltr" dominant-baseline="text-before-edge">L2</text></g><g stroke-linecap="round" transform="translate(661.1927902147936 179.49708607423327) rotate(0 62.93909546160421 55.3512196611473)"><path d="M84.64 4.41 C93.8 6.26, 103.86 11.44, 110.53 17.61 C117.19 23.78, 122.46 32.93, 124.63 41.45 C126.81 49.98, 125.89 60.5, 123.58 68.77 C121.27 77.03, 117.05 84.63, 110.78 91.07 C104.52 97.5, 95.09 104.07, 85.98 107.39 C76.87 110.71, 65.86 111.96, 56.12 110.98 C46.38 109.99, 35.55 106.54, 27.55 101.47 C19.54 96.4, 12.83 88.32, 8.07 80.55 C3.32 72.79, -0.93 63.22, -0.99 54.87 C-1.05 46.52, 3.09 37.8, 7.7 30.45 C12.32 23.1, 18.7 15.71, 26.7 10.77 C34.7 5.84, 45.49 1.81, 55.71 0.86 C65.93 -0.09, 81.9 3.88, 88.04 5.09 C94.19 6.29, 92.76 7.35, 92.58 8.07 M48.88 1.68 C57.65 -0.96, 67.63 -0.65, 77.03 1.34 C86.43 3.33, 98.02 8.09, 105.28 13.64 C112.55 19.19, 117.5 26.27, 120.6 34.63 C123.7 42.98, 124.81 55.13, 123.89 63.75 C122.97 72.36, 120.32 79.57, 115.07 86.32 C109.82 93.08, 101.06 100.37, 92.38 104.29 C83.7 108.2, 73.06 109.93, 62.99 109.82 C52.92 109.71, 40.48 107.66, 31.95 103.61 C23.43 99.57, 17.27 92.36, 11.83 85.53 C6.38 78.69, 0.74 70.95, -0.71 62.61 C-2.15 54.27, -0.62 43.51, 3.15 35.48 C6.92 27.45, 14.24 19.95, 21.9 14.42 C29.56 8.89, 44.49 4.25, 49.13 2.29 C53.76 0.33, 49.85 1.92, 49.71 2.66" stroke="none" stroke-width="0" fill="#b2f2bb"></path><path d="M50.74 0.72 C59.52 -1.85, 70.81 -0.63, 80.16 1.71 C89.51 4.06, 99.77 8.69, 106.84 14.8 C113.9 20.9, 119.58 30.1, 122.54 38.35 C125.51 46.6, 126.32 55.89, 124.66 64.3 C123 72.7, 118.45 82, 112.58 88.76 C106.71 95.51, 98.04 101.07, 89.44 104.83 C80.84 108.59, 70.57 111.62, 60.99 111.33 C51.42 111.04, 40.46 107.53, 31.99 103.09 C23.52 98.65, 15.44 91.96, 10.16 84.68 C4.87 77.41, 1.21 67.9, 0.28 59.45 C-0.65 51, 0.66 41.86, 4.58 33.99 C8.51 26.12, 15.25 17.76, 23.84 12.25 C32.44 6.75, 50.04 2.95, 56.15 0.94 C62.27 -1.08, 60.63 -0.55, 60.54 0.16 M44.56 1.4 C52.98 -2.04, 64.89 -1.5, 74.8 0.24 C84.71 1.97, 96.27 6.1, 104.02 11.81 C111.77 17.52, 117.48 26.37, 121.29 34.5 C125.09 42.63, 127.52 52.06, 126.86 60.61 C126.19 69.17, 122.79 78.61, 117.3 85.84 C111.81 93.06, 102.73 99.85, 93.92 103.96 C85.1 108.07, 74.25 110.16, 64.39 110.52 C54.54 110.88, 43.33 110.02, 34.81 106.13 C26.29 102.24, 18.82 94.38, 13.29 87.19 C7.75 80, 3.46 70.99, 1.58 62.98 C-0.29 54.96, -0.88 47, 2.04 39.09 C4.96 31.18, 11.67 21.6, 19.1 15.53 C26.53 9.45, 41.95 4.65, 46.6 2.64 C51.26 0.62, 46.77 2.45, 47.04 3.44" stroke="#2f9e44" stroke-width="2" fill="none"></path></g><g transform="translate(706.865231065547 212.20908296603739) rotate(0 17.261993408203125 22.5)"><text x="17.261993408203125" y="0" font-family="Virgil, Segoe UI Emoji" font-size="36px" fill="#2f9e44" text-anchor="middle" style="white-space: pre;" direction="ltr" dominant-baseline="text-before-edge">10</text></g><g stroke-linecap="round" transform="translate(1075.525684423584 638.6509134372145) rotate(0 62.93909546160421 55.3512196611473)"><path d="M10.58 25.1 C10.58 25.1, 10.58 25.1, 10.58 25.1 M10.58 25.1 C10.58 25.1, 10.58 25.1, 10.58 25.1 M2.18 46.95 C13.9 33.75, 25.24 23.03, 37.61 6.2 M2.18 46.95 C12.3 35.69, 20.61 26.22, 37.61 6.2 M2.97 58.24 C21.34 37.84, 36.6 18.75, 50.21 3.9 M2.97 58.24 C21.13 38.2, 39.36 16.9, 50.21 3.9 M4.42 68.77 C21.17 46.94, 38.17 26.92, 62.81 1.6 M4.42 68.77 C23.23 47.95, 41.59 25.46, 62.81 1.6 M6.52 78.54 C22.57 62.23, 38.32 41.87, 72.13 3.07 M6.52 78.54 C27.61 55.06, 47.68 32.57, 72.13 3.07 M11.9 84.55 C35.57 53.64, 62.48 26.51, 81.44 4.55 M11.9 84.55 C36.2 54.34, 62.4 26, 81.44 4.55 M17.28 90.55 C34.55 70.35, 50.07 54.2, 90.76 6.02 M17.28 90.55 C33.29 74.3, 47.96 56.49, 90.76 6.02 M22.67 96.55 C44.44 70.99, 65.85 49.37, 97.46 10.52 M22.67 96.55 C46.08 69.84, 69.04 44.46, 97.46 10.52 M29.36 101.05 C55.97 70.77, 82.2 44.07, 103.49 15.76 M29.36 101.05 C47.77 78.59, 67.8 56.54, 103.49 15.76 M37.36 104.03 C64.54 72.21, 93.94 36.22, 110.19 20.26 M37.36 104.03 C64.1 72.96, 93.03 40.49, 110.19 20.26 M44.71 107.77 C72.37 76.61, 94.52 49.26, 114.91 27.02 M44.71 107.77 C64.11 85.56, 83.68 62.68, 114.91 27.02 M52.72 110.75 C75.6 83.66, 98.69 57.79, 118.98 34.53 M52.72 110.75 C72.44 88.41, 92.98 64.81, 118.98 34.53 M64.01 109.97 C77.41 96.65, 87.62 81, 123.05 42.04 M64.01 109.97 C80.82 90.04, 98.89 70.49, 123.05 42.04 M74.64 109.93 C92.63 88, 112.28 65.76, 125.15 51.82 M74.64 109.93 C93.91 88.95, 111.25 65.82, 125.15 51.82 M89.86 104.61 C98.16 92.56, 108.35 81.86, 123.97 65.37 M89.86 104.61 C101.27 91.12, 113.02 78.64, 123.97 65.37 M23.54 97.91 C23.54 97.91, 23.54 97.91, 23.54 97.91 M23.54 97.91 C23.54 97.91, 23.54 97.91, 23.54 97.91 M49.17 109.58 C39.59 99.53, 27.66 92.74, 7.66 73.5 M49.17 109.58 C37.25 100.13, 24.26 88.01, 7.66 73.5 M55.93 104.86 C35.73 86.47, 15.53 71.69, 6.12 61.56 M55.93 104.86 C43.19 94.63, 31.19 82.38, 6.12 61.56 M67.97 104.72 C45.84 85.85, 23.03 66.71, 2.31 47.65 M67.97 104.72 C52.5 91.35, 35.92 76.9, 2.31 47.65 M82.27 106.56 C53.41 80.88, 24.87 56.22, 6.05 40.3 M82.27 106.56 C61.73 89.4, 42.76 73.38, 6.05 40.3 M90.54 103.14 C63.78 78.6, 38.43 56.66, 9.03 32.29 M90.54 103.14 C65.51 80.31, 39.01 57.18, 9.03 32.29 M98.05 99.08 C74.98 79.51, 55.72 62.29, 11.26 23.63 M98.05 99.08 C80.2 84.01, 61.36 67.47, 11.26 23.63 M106.32 95.66 C75.34 67.25, 44.64 41.65, 18.02 18.9 M106.32 95.66 C73.88 68.2, 40.59 39.87, 18.02 18.9 M110.81 88.97 C95.46 74.62, 76.4 59.08, 24.02 13.52 M110.81 88.97 C76.38 57.3, 41.2 27.92, 24.02 13.52 M115.31 82.27 C88.15 58.34, 63.49 36.66, 30.02 8.14 M115.31 82.27 C84.49 56.28, 54.67 30.47, 30.02 8.14 M119.8 75.58 C88.99 48.39, 54.75 22.28, 36.03 2.76 M119.8 75.58 C93.12 51.91, 66.82 30.45, 36.03 2.76 M125.05 69.54 C108.73 55.04, 92.04 43.42, 45.8 0.66 M125.05 69.54 C92.72 42.59, 63.5 16.93, 45.8 0.66 M125.77 59.57 C98.76 37.22, 73.34 12.21, 55.58 -1.44 M125.77 59.57 C104.4 39.61, 83.1 21.93, 55.58 -1.44 M127.24 50.25 C104.55 29.98, 83.74 10.95, 65.36 -3.55 M127.24 50.25 C109.66 34.72, 91.93 20.33, 65.36 -3.55 M129.47 41.59 C118.85 31.92, 108.66 24.77, 80.42 -1.05 M129.47 41.59 C112.23 26.26, 96.08 12.59, 80.42 -1.05" stroke="#b2f2bb" stroke-width="1" fill="none"></path><path d="M90.58 5.99 C99.21 8.88, 107.36 16.13, 113.12 22.77 C118.89 29.41, 123.61 37.58, 125.17 45.86 C126.73 54.14, 125.62 64.09, 122.46 72.45 C119.3 80.81, 113.2 89.9, 106.21 96.04 C99.22 102.17, 89.7 106.84, 80.52 109.25 C71.34 111.65, 60.62 112.34, 51.12 110.45 C41.61 108.55, 31.2 103.43, 23.51 97.88 C15.83 92.33, 8.79 85.11, 5.01 77.14 C1.23 69.17, -0.12 58.75, 0.84 50.04 C1.79 41.33, 5.5 32.13, 10.75 24.9 C16 17.67, 23.95 10.65, 32.35 6.65 C40.75 2.66, 51.42 1.17, 61.15 0.92 C70.89 0.67, 85.68 3.97, 90.76 5.15 C95.84 6.33, 91.86 7.13, 91.62 7.99" stroke="#2f9e44" stroke-width="2.5" fill="none" stroke-dasharray="1.5 8"></path></g><g transform="translate(1121.1981252743371 671.3629103290186) rotate(0 17.261993408203125 22.5)"><text x="17.261993408203125" y="0" font-family="Virgil, Segoe UI Emoji" font-size="36px" fill="#2f9e44" text-anchor="middle" style="white-space: pre;" direction="ltr" dominant-baseline="text-before-edge">10</text></g><g stroke-linecap="round" transform="translate(709.6168274851252 499.7289787300906) rotate(0 120.33531957215888 114.62956500497285)"><path d="M10.98 106.27 C10.98 106.27, 10.98 106.27, 10.98 106.27 M10.98 106.27 C10.98 106.27, 10.98 106.27, 10.98 106.27 M9.15 120.58 C28.21 99.71, 47.73 74.2, 74.75 45.11 M9.15 120.58 C28.68 100.39, 45.75 79.11, 74.75 45.11 M14.53 126.58 C43.61 90.74, 78 55.79, 116.22 9.6 M14.53 126.58 C48.63 88.64, 79.97 49.89, 116.22 9.6 M19.25 133.34 C50.67 95.61, 83.24 59.78, 127.5 8.81 M19.25 133.34 C58.11 85.96, 97.95 41.57, 127.5 8.81 M25.29 138.59 C54.32 105.48, 82.47 75.08, 134.2 13.3 M25.29 138.59 C50.43 109.48, 75.13 78.27, 134.2 13.3 M30.67 144.59 C59.86 109.64, 92.12 72.8, 140.23 18.55 M30.67 144.59 C72.15 96.68, 113.45 48.66, 140.23 18.55 M36.71 149.84 C72.83 109.7, 108.09 68.9, 146.27 23.8 M36.71 149.84 C77.19 104.22, 116.95 57.63, 146.27 23.8 M42.75 155.09 C77.97 112.44, 115.47 73.92, 152.31 29.05 M42.75 155.09 C82.43 110.26, 122.8 64.38, 152.31 29.05 M48.79 160.34 C81.28 121.35, 112.62 83.19, 157.69 35.05 M48.79 160.34 C75.04 129.15, 102.88 99.87, 157.69 35.05 M54.17 166.34 C97.39 119.3, 140.28 69.42, 163.73 40.3 M54.17 166.34 C86.21 129.45, 118.43 92.31, 163.73 40.3 M60.21 171.59 C94.66 132.36, 123.51 95.82, 169.11 46.31 M60.21 171.59 C90.06 138.67, 117.94 106.15, 169.11 46.31 M66.24 176.84 C90.9 145.8, 116.5 118.14, 175.15 51.55 M66.24 176.84 C97.5 140.53, 129.18 106.05, 175.15 51.55 M71.62 182.84 C111.7 136.26, 153.28 90.3, 180.53 57.56 M71.62 182.84 C115.33 134.98, 157.01 86.88, 180.53 57.56 M77.66 188.09 C102.61 160.92, 124.7 130.63, 186.57 62.81 M77.66 188.09 C116.09 143.23, 154.62 100.86, 186.57 62.81 M83.7 193.34 C116.47 157.06, 148.15 120.59, 191.95 68.81 M83.7 193.34 C106.54 164.12, 131.46 136.56, 191.95 68.81 M89.08 199.34 C112.14 176.2, 131.91 150.61, 197.99 74.06 M89.08 199.34 C113.8 171.29, 140.54 140.48, 197.99 74.06 M95.12 204.59 C136.99 158.37, 178.38 111.54, 203.37 80.06 M95.12 204.59 C119.53 178.44, 143.82 149.57, 203.37 80.06 M101.16 209.84 C121.28 184.55, 142.22 160.41, 209.41 85.31 M101.16 209.84 C123.3 183.78, 145.48 157.52, 209.41 85.31 M107.19 215.08 C136.35 182.09, 161.76 152.8, 215.44 90.56 M107.19 215.08 C131.03 188.51, 157.06 160.4, 215.44 90.56 M113.89 219.58 C145.31 185.13, 178.26 147.19, 220.83 96.56 M113.89 219.58 C142.28 186.68, 169.73 155.31, 220.83 96.56 M122.55 221.81 C152.57 184.82, 182.76 149.35, 226.21 102.56 M122.55 221.81 C152.69 186.56, 184.96 149.9, 226.21 102.56 M149.58 202.91 C183.97 166.78, 213.33 129.73, 231.59 108.57 M149.58 202.91 C172.93 174.67, 196.05 148.17, 231.59 108.57 M212.7 142.49 C220.11 136.23, 228.64 124.8, 231.07 121.36 M212.7 142.49 C218.47 135.84, 225.36 126.98, 231.07 121.36 M100.94 210.07 C100.94 210.07, 100.94 210.07, 100.94 210.07 M100.94 210.07 C100.94 210.07, 100.94 210.07, 100.94 210.07 M125.06 220.43 C81.87 181.26, 35.71 143.48, 9.59 120.06 M125.06 220.43 C95.31 194.37, 63.15 167.4, 9.59 120.06 M132.57 216.36 C91.19 178.5, 49.68 145.59, 9.55 109.43 M132.57 216.36 C95.05 184.52, 58.12 151.37, 9.55 109.43 M139.33 211.64 C94.42 176.94, 53.8 138.38, 14.05 102.73 M139.33 211.64 C103.17 180.5, 66.51 149.08, 14.05 102.73 M145.33 206.26 C114.66 179.75, 86.52 153.63, 19.29 96.7 M145.33 206.26 C97.38 163.57, 47.44 120.83, 19.29 96.7 M151.33 200.88 C101.53 158.68, 57.22 116.46, 25.3 91.31 M151.33 200.88 C99.33 156.81, 49.7 114.09, 25.3 91.31 M156.58 194.84 C117.39 159.08, 75.82 124.52, 31.3 85.93 M156.58 194.84 C113.16 157.14, 69.9 119.04, 31.3 85.93 M162.59 189.46 C125.05 154.82, 83.23 122.25, 36.55 79.9 M162.59 189.46 C127.33 156.55, 89.56 126.02, 36.55 79.9 M168.59 184.08 C122.28 141.03, 74.23 98.9, 42.55 74.51 M168.59 184.08 C128.25 147.7, 86.3 112.54, 42.55 74.51 M173.84 178.04 C141.05 148.81, 107.95 120.89, 48.56 69.13 M173.84 178.04 C124.86 136.17, 76.56 94.78, 48.56 69.13 M179.84 172.66 C151.5 148.23, 119.53 121.31, 54.56 63.75 M179.84 172.66 C145.74 142.5, 109.99 112.89, 54.56 63.75 M185.84 167.27 C153.2 138.9, 118.45 106.43, 59.81 57.71 M185.84 167.27 C154.03 141.37, 123.52 113.26, 59.81 57.71 M191.85 161.89 C153.73 125.8, 113.95 95.25, 65.81 52.33 M191.85 161.89 C165.62 139.08, 140.83 116.17, 65.81 52.33 M197.1 155.86 C158.58 119.35, 116.45 84.74, 71.81 46.95 M197.1 155.86 C154.58 118.65, 110.92 80.2, 71.81 46.95 M203.1 150.47 C169.37 126.28, 140.99 96.16, 77.82 41.57 M203.1 150.47 C162.53 115.79, 121.31 80.84, 77.82 41.57 M209.1 145.09 C173.51 113.83, 137.01 84.12, 83.07 35.53 M209.1 145.09 C172.04 111.33, 135.71 79.76, 83.07 35.53 M215.11 139.71 C169.11 103.33, 124.64 61.21, 89.07 30.15 M215.11 139.71 C177.87 109.03, 141.97 77.47, 89.07 30.15 M220.35 133.67 C169.04 92.99, 121.3 48.27, 95.07 24.77 M220.35 133.67 C193.08 106.67, 162.44 82.94, 95.07 24.77 M225.6 127.63 C187.91 96.2, 149.76 64.04, 101.07 19.39 M225.6 127.63 C180.99 89.43, 135.34 48.99, 101.07 19.39 M230.85 121.6 C185.17 83.77, 136.37 42.45, 107.08 14 M230.85 121.6 C202.97 96.66, 175.09 71.29, 107.08 14 M233.08 112.94 C206.74 89.65, 179.03 66.67, 113.84 9.28 M233.08 112.94 C201.65 86.65, 170.07 57.81, 113.84 9.28 M186.25 61.63 C167.45 45.86, 149.35 30.2, 123.61 7.18 M186.25 61.63 C170.23 46.31, 152.87 32.08, 123.61 7.18" stroke="#b2f2bb" stroke-width="1" fill="none"></path><path d="M151.25 28.75 C167.48 42.43, 182.51 57.16, 210.42 86.25 M210.42 86.25 C238.84 114.12, 240.4 113.51, 210.42 143.75 M210.42 143.75 C194.39 159.77, 172.49 180.95, 151.25 200.51 M151.25 200.51 C121.59 227.31, 119.89 228.2, 90.75 200.51 M90.75 200.51 C74.25 184.75, 56.74 169.66, 30.25 143.75 M30.25 143.75 C-1.26 114.6, 1.89 113.2, 30.25 86.25 M30.25 86.25 C47.29 71.23, 64.69 53.02, 90.75 28.75 M90.75 28.75 C119.01 0.31, 122.03 0.04, 151.25 28.75" stroke="#2f9e44" stroke-width="2.5" fill="none" stroke-dasharray="1.5 8"></path></g><g transform="translate(779.8885064362437 592.0437612325768) rotate(0 49.89598083496094 22.5)"><text x="49.89598083496094" y="0" font-family="Virgil, Segoe UI Emoji" font-size="36px" fill="#2f9e44" text-anchor="middle" style="white-space: pre;" direction="ltr" dominant-baseline="text-before-edge">Signer</text></g><g stroke-linecap="round"><g transform="translate(865.8876131981642 551.6184065886173) rotate(0 36.01272007119053 -38.32270419291217)"><path d="M0.71 -0.83 C6.47 -13.62, 23.01 -66.32, 34.97 -77.55 C46.93 -88.77, 66.22 -69.66, 72.47 -68.2" stroke="#2f9e44" stroke-width="2.5" fill="none" stroke-dasharray="1.5 8"></path></g><g transform="translate(865.8876131981642 551.6184065886173) rotate(0 36.01272007119053 -38.32270419291217)"><path d="M53.59 -71.22 C58.59 -70.15, 64.82 -68.59, 72.47 -68.2" stroke="#2f9e44" stroke-width="2.5" fill="none" stroke-dasharray="1.5 6"></path></g><g transform="translate(865.8876131981642 551.6184065886173) rotate(0 36.01272007119053 -38.32270419291217)"><path d="M59.95 -82.65 C62.74 -77.7, 66.83 -72.3, 72.47 -68.2" stroke="#2f9e44" stroke-width="2.5" fill="none" stroke-dasharray="1.5 6"></path></g></g><mask></mask><g stroke-linecap="round"><g transform="translate(833.2284378217096 572.184397410625) rotate(0 67.88919230165249 -116.33711242170011)"><path d="M0.44 -0.35 C11.07 -38.89, 42.3 -193.53, 64.84 -232.05 C87.39 -270.57, 123.87 -231.82, 135.71 -231.45" stroke="#2f9e44" stroke-width="2.5" fill="none" stroke-dasharray="1.5 8"></path></g><g transform="translate(833.2284378217096 572.184397410625) rotate(0 67.88919230165249 -116.33711242170011)"><path d="M105.83 -234.04 C116.77 -232.85, 129.94 -232.26, 135.71 -231.45" stroke="#2f9e44" stroke-width="2.5" fill="none" stroke-dasharray="1.5 6"></path></g><g transform="translate(833.2284378217096 572.184397410625) rotate(0 67.88919230165249 -116.33711242170011)"><path d="M114.48 -252.65 C121.96 -244.23, 131.78 -236.46, 135.71 -231.45" stroke="#2f9e44" stroke-width="2.5" fill="none" stroke-dasharray="1.5 6"></path></g></g><mask></mask></svg>